<?xml version="1.0" encoding="utf-8"?>
<!-- Generator: Adobe Illustrator 23.1.1, SVG Export Plug-In . SVG Version: 6.00 Build 0)  -->
<svg version="1.1" id="Layer_1" width="420px" height="420px" xmlns="http://www.w3.org/2000/svg" xmlns:xlink="http://www.w3.org/1999/xlink" x="0px" y="0px"
	 viewBox="0 0 254 254" style="enable-background:new 0 0 254 254;" xml:space="preserve">
<style type="text/css">
	.st0{fill:#FFFFFF;stroke:#000000;stroke-width:1.2324;stroke-miterlimit:4.9296;}
	.st1{font-family:'Helvetica';}
	.st2{font-size:7.2659px;}
	.st3{fill:none;stroke:#000000;stroke-width:1.2324;stroke-miterlimit:12.3241;}
	.st4{stroke:#000000;stroke-width:1.2324;stroke-miterlimit:12.3241;}
	.st5{fill:none;}
	.st6{font-size:7.8773px;}
	.st7{fill:none;stroke:#000000;stroke-width:2.4648;stroke-miterlimit:12.3241;stroke-dasharray:7.3945,7.3945;}
	.st8{font-size:3.9103px;}
</style>
<g>
	<ellipse pointer-events="all" class="st0" cx="120" cy="51.6" rx="52.5" ry="29.6"/>
	<g transform="translate(109.5,38.5)">
		<text transform="matrix(1 0 0 1 -33.2607 6.583)" class="st1 st2">decision: (feature, score)</text>
		<text transform="matrix(1 0 0 1 -33.2607 15.3135)" class="st1 st2">true_branch: &lt;node_true&gt;</text>
		<text transform="matrix(1 0 0 1 -33.2607 24.0439)" class="st1 st2">false_branch: &lt;node_false&gt;</text>
	</g>
	<ellipse pointer-events="all" class="st0" cx="57.7" cy="135.5" rx="29.6" ry="16.4"/>
	<ellipse pointer-events="all" class="st0" cx="182.4" cy="136.9" rx="29.6" ry="16.4"/>
	<path pointer-events="stroke" class="st3" d="M95.8,77.7L60.5,116"/>
	<path pointer-events="all" class="st4" d="M58.3,118.6l1.5-4.9l0.9,2.3l2.5,0.7L58.3,118.6z"/>
	<path pointer-events="stroke" class="st3" d="M143.9,77.8l35.7,39.6"/>
	<path pointer-events="all" class="st4" d="M182,120l-4.8-1.8l2.5-0.7l0.9-2.3L182,120z"/>
	<rect x="166" y="74.5" pointer-events="all" class="st5" width="78.8" height="13.2"/>
	<g transform="translate(259.5,98.5)">
		<text transform="matrix(1 0 0 1 -88.126 -13.8232)" class="st1 st6">feature[191] &gt;= 136</text>
	</g>
	<rect x="179.2" y="87.7" pointer-events="all" class="st5" width="52.5" height="13.2"/>
	<g transform="translate(279.5,118.5)">
		<text transform="matrix(1 0 0 1 -95.4199 -20.6943)" class="st1 st6">true_branch</text>
	</g>
	<rect x="8.5" y="74.5" pointer-events="all" class="st5" width="72.2" height="13.2"/>
	<g transform="translate(17.5,98.5)">
		<text transform="matrix(1 0 0 1 -5.3125 -13.8232)" class="st1 st6">feature[191] &lt; 136</text>
	</g>
	<rect x="15" y="87.7" pointer-events="all" class="st5" width="52.5" height="13.2"/>
	<g transform="translate(27.5,118.5)">
		<text transform="matrix(1 0 0 1 -8.4092 -20.6943)" class="st1 st6">false_branch</text>
	</g>
	<path pointer-events="stroke" class="st7" d="M57.3,218.9L57.3,218.9v-39.4"/>
	<path pointer-events="stroke" class="st3" d="M57.7,152l-17.3,22.9"/>
	<path pointer-events="all" class="st4" d="M38.5,177.7l0.9-5.1l1.2,2.3l2.5,0.5L38.5,177.7z"/>
	<path pointer-events="stroke" class="st3" d="M61,152l17.3,22.9"/>
	<path pointer-events="all" class="st4" d="M80.2,177.7l-4.6-2.3l2.5-0.5l1.2-2.3L80.2,177.7z"/>
	<path pointer-events="stroke" class="st3" d="M180.8,153.3l-17.3,22.9"/>
	<path pointer-events="all" class="st4" d="M161.6,178.9l0.9-5.1l1.2,2.3l2.5,0.5L161.6,178.9z"/>
	<path pointer-events="stroke" class="st3" d="M184.1,153.3l17.3,22.9"/>
	<path pointer-events="all" class="st4" d="M203.3,178.9l-4.6-2.3l2.6-0.5l1.2-2.3L203.3,178.9z"/>
	<path pointer-events="stroke" class="st7" d="M182,218.9L182,218.9v-39.4"/>
	<rect x="34.8" y="228.8" pointer-events="all" class="st5" width="46" height="13.2"/>
	<g transform="translate(60.5,333.5)">
		<text transform="matrix(1 0 0 1 -19.1836 -101.9424)" class="st1 st6">label: 270</text>
	</g>
	<rect x="162.8" y="228.8" pointer-events="all" class="st5" width="39.4" height="13.2"/>
	<g transform="translate(254.5,333.5)">
		<text transform="matrix(1 0 0 1 -86.6104 -101.9424)" class="st1 st6">label: 90</text>
	</g>
	<g transform="translate(109.5,38.5)">
		<text transform="matrix(1 0 0 1 -74.748 92.8721)" class="st1 st8">question: (feature, score)</text>
		<text transform="matrix(1 0 0 1 -74.748 97.5322)" class="st1 st8">true_branch: &lt;node_true&gt;</text>
		<text transform="matrix(1 0 0 1 -74.748 102.2588)" class="st1 st8">false_branch: &lt;node_false&gt;</text>
	</g>
	<g transform="translate(109.5,38.5)">
		<text transform="matrix(1 0 0 1 49.1797 94.792)" class="st1 st8">question: (feature, score)</text>
		<text transform="matrix(1 0 0 1 49.1797 99.4521)" class="st1 st8">true_branch: &lt;node_true&gt;</text>
		<text transform="matrix(1 0 0 1 49.1797 104.1777)" class="st1 st8">false_branch: &lt;node_false&gt;</text>
	</g>
</g>
</svg>
